<?xml version="1.0" encoding="utf-8"?><svg version="1.1" id="Layer_1" xmlns="http://www.w3.org/2000/svg" xmlns:xlink="http://www.w3.org/1999/xlink" x="0px" y="0px" viewBox="0 0 122.87 122.88" style="enable-background: new 0 0 122.87 122.88" xml:space="preserve">

<g>

<path d="M 52 110.2 c -10 -1.9 -18.9 -6.8 -25.8 -13.7 c -6.9 -6.9 -11.8 -15.8 -13.7 -25.8 h 6.2 c 1.8 8.3 6 15.7 11.8 21.5 c 5.8 5.8 13.2 9.9 21.5 11.8 V 110.2 L 52 110.2 z M 96.3 64.5 c -1.7 0 -3 -1.4 -3 -3 c 0 -1.7 1.4 -3 3 -3 h 23.5 c 1.7 0 3 1.4 3 3 c 0 1.7 -1.4 3 -3 3 H 96.3 L 96.3 64.5 L 96.3 64.5 z M 64.5 26.6 c 0 1.7 -1.4 3 -3 3 c -1.7 0 -3 -1.4 -3 -3 V 3 C 58.4 1.4 59.8 0 61.4 0 c 1.7 0 3 1.4 3 3 V 26.6 L 64.5 26.6 L 64.5 26.6 z M 64.5 119.8 c 0 1.7 -1.4 3 -3 3 c -1.7 0 -3 -1.4 -3 -3 V 96.3 c 0 -4 6.1 -4 6.1 0 V 119.8 L 64.5 119.8 L 64.5 119.8 z M 3 64.5 C 1.4 64.5 0 63.1 0 61.4 c 0 -1.7 1.4 -3 3 -3 h 23.5 c 1.7 0 3 1.4 3 3 c 0 1.7 -1.4 3 -3 3 H 3 L 3 64.5 L 3 64.5 z M 61.4 46.9 c 8 0 14.5 6.5 14.5 14.5 c 0 8 -6.5 14.5 -14.5 14.5 c -8 0 -14.5 -6.5 -14.5 -14.5 C 46.9 53.4 53.4 46.9 61.4 46.9 L 61.4 46.9 z M 12.6 51.9 c 1.9 -10 6.8 -18.9 13.7 -25.8 c 6.9 -6.9 15.8 -11.8 25.8 -13.7 v 6.2 c -8.3 1.8 -15.7 6 -21.5 11.8 c -5.8 5.8 -10 13.2 -11.8 21.4 H 12.6 L 12.6 51.9 z M 70.9 12.5 c 10 1.9 18.9 6.8 25.8 13.7 c 6.9 6.9 11.8 15.8 13.7 25.8 h -6.2 c -1.8 -8.3 -6 -15.7 -11.8 -21.5 c -5.8 -5.8 -13.2 -10 -21.5 -11.8 V 12.5 L 70.9 12.5 z M 110.3 70.8 c -1.9 10 -6.8 18.9 -13.7 25.8 c -6.9 6.9 -15.8 11.8 -25.8 13.7 v -6.2 c 16.6 -3.6 29.6 -16.7 33.3 -33.3 H 110.3 L 110.3 70.8 z"/>

</g>

</svg>